<?xml version="1.0" encoding="utf-8"?>
<!-- Generator: Adobe Illustrator 16.0.0, SVG Export Plug-In . SVG Version: 6.00 Build 0)  -->
<!DOCTYPE svg PUBLIC "-//W3C//DTD SVG 1.1//EN" "http://www.w3.org/Graphics/SVG/1.1/DTD/svg11.dtd">
<svg version="1.1" id="Layer_1" xmlns="http://www.w3.org/2000/svg" xmlns:xlink="http://www.w3.org/1999/xlink" x="0px" y="0px"
	 width="220px" height="440px" viewBox="0 0 220 440" enable-background="new 0 0 220 440" xml:space="preserve">
<path fill="#FFFFFF" d="M94.021,337.232c0-4.215-3.416-7.631-7.63-7.631c-4.216,0-7.632,3.416-7.632,7.631
	s7.632,51.123,7.632,51.123S94.021,341.447,94.021,337.232"/>
<path fill="#FFFFFF" d="M117.366,383.584c0-4.213-3.418-7.629-7.632-7.629c-4.213,0-7.631,3.416-7.631,7.629
	c0,4.215,7.631,51.125,7.631,51.125S117.366,387.799,117.366,383.584"/>
<path fill="#FFFFFF" d="M141.713,344.758c0-4.213-3.416-7.629-7.632-7.629c-4.211,0-7.63,3.416-7.63,7.629
	c0,4.215,7.63,51.125,7.63,51.125S141.713,348.973,141.713,344.758"/>
<rect x="79.704" y="305.23" fill="#EDEDEF" width="60.593" height="19.982"/>
<rect x="79.705" y="305.23" fill="#FFFFFF" width="30.295" height="19.982"/>
<path fill="#0E8DB0" d="M110,298.113c44.857,0,83.166,27.924,98.55,67.328c4.667-11.922,7.252-24.891,7.255-38.467
	c-0.003-58.441-47.371-105.809-105.803-105.809C51.57,221.172,4.196,268.537,4.197,326.973c0,13.58,2.582,26.547,7.245,38.469
	C26.838,326.037,65.146,298.117,110,298.113"/>
<path fill="#016681" d="M137.014,224.668v77.004c32.788,8.646,59.354,32.58,71.537,63.77c4.667-11.922,7.252-24.889,7.252-38.467
	C215.8,277.875,182.354,236.604,137.014,224.668"/>
<path fill="#E1A726" d="M110,311.865c13.014,0,25.553,2.035,37.332,5.773c17.477-35.387,28.027-81.021,28.027-130.893
	c-0.002-79.219-26.578-147.811-65.357-181.457C71.215,38.938,44.635,107.527,44.635,186.746
	c0.001,49.869,10.552,95.51,28.038,130.893C84.444,313.902,96.987,311.865,110,311.865"/>
<path fill="#D38229" d="M110.001,5.291c-0.127,0.11-0.248,0.245-0.381,0.353l0.003,306.239c0.121-0.004,0.253-0.018,0.376-0.018
	c13.013,0,25.554,2.035,37.333,5.771c17.479-35.383,28.027-81.021,28.027-130.889C175.359,107.527,148.782,38.938,110.001,5.291"/>
<path fill="#0E8DB0" d="M158.311,81.887c-11.625-32.84-28.313-59.346-48.26-76.654l-0.049-0.042l-0.049,0.042
	C90,22.547,73.31,49.053,61.687,81.886l-0.038,0.107l0.114-0.008c16.194-1.075,32.423-1.621,48.238-1.623
	c15.865,0.001,32.094,0.548,48.234,1.624l0.113,0.008L158.311,81.887z"/>
<path fill="#016681" d="M158.309,81.888c-11.624-32.843-28.312-59.35-48.258-76.653l-0.049-0.042l-0.049,0.042
	c-0.068,0.059-0.138,0.123-0.206,0.185c-0.059,0.053-0.116,0.105-0.172,0.154l-0.026,0.022v74.772l0.126,0.001
	c0.066,0,0.135-0.001,0.203-0.003l0.124-0.002c15.897,0.001,32.125,0.548,48.232,1.624l0.113,0.008L158.309,81.888z"/>
<path fill="#0E8DB0" d="M110.003,214.752c-8.322,14.004-14.026,42.529-14.027,75.477c-0.002,32.943,5.704,61.471,14.025,75.479
	c8.315-14.008,14.022-42.533,14.026-75.479C124.027,257.283,118.316,228.756,110.003,214.752"/>
<path fill="#016681" d="M109.623,215.437l-0.002,149.575c0.132,0.223,0.253,0.473,0.38,0.693
	c8.315-14.008,14.024-42.533,14.026-75.479c0-32.943-5.711-61.473-14.024-75.477C109.879,214.97,109.753,215.225,109.623,215.437"/>
<path fill="#D1ECFB" d="M110.003,112.524c-0.161-0.002-0.325,0.02-0.48,0.021v0.005c-17.611,0.257-31.861,14.641-31.863,32.307
	c0.003,17.841,14.507,32.337,32.344,32.337c17.827-0.002,32.342-14.499,32.337-32.34C142.34,127.029,127.83,112.522,110.003,112.524
	"/>
<path fill="#34365C" d="M117.32,161.328l14.103,0.318c0,0-3.26,7.865-10.134,7.237C114.409,168.253,117.32,161.328,117.32,161.328"
	/>
<path fill="#34365C" d="M101.735,159.159l-13.062,0.377c0,0,3.018,9.31,9.389,8.566
	C104.432,167.357,101.735,159.159,101.735,159.159"/>
<path fill="#34365C" d="M108.344,156.373c0,5.391-4.092,9.755-9.138,9.755c-5.051,0-9.139-4.364-9.139-9.755
	c0-5.392,4.088-9.758,9.139-9.758C104.252,146.615,108.344,150.981,108.344,156.373"/>
<path fill="#34365C" d="M128.943,159.471c0,5.391-4.092,9.755-9.139,9.755c-5.048,0-9.139-4.364-9.139-9.755
	c0-5.392,4.091-9.759,9.139-9.759C124.852,149.712,128.943,154.079,128.943,159.471"/>
<path fill="#34365C" d="M105.434,145.577c0,4.304-3.265,7.79-7.298,7.79c-4.026,0-7.294-3.486-7.294-7.79
	c0-4.306,3.268-7.792,7.294-7.792C102.169,137.785,105.434,141.271,105.434,145.577"/>
<path fill="#34365C" d="M103.573,134.734c0,4.305-3.264,7.79-7.297,7.79c-4.027,0-7.294-3.485-7.294-7.79
	c0-4.304,3.267-7.792,7.294-7.792C100.31,126.942,103.573,130.431,103.573,134.734"/>
<path fill="#34365C" d="M109.463,127.921c0,4.303-3.268,7.792-7.298,7.792c-4.032,0-7.299-3.489-7.299-7.792
	c0-4.305,3.267-7.79,7.299-7.79C106.195,120.131,109.463,123.616,109.463,127.921"/>
<path fill="#34365C" d="M118.753,128.851c0,4.303-3.269,7.79-7.297,7.79c-4.027,0-7.294-3.487-7.294-7.79
	c0-4.305,3.267-7.79,7.294-7.79C115.484,121.061,118.753,124.546,118.753,128.851"/>
<path fill="#34365C" d="M126.497,131.328c0,4.304-3.269,7.792-7.294,7.792c-4.03,0-7.299-3.488-7.299-7.792
	c0-4.305,3.269-7.79,7.299-7.79C123.229,123.538,126.497,127.023,126.497,131.328"/>
<path fill="#34365C" d="M130.523,137.833c0,4.305-3.266,7.79-7.297,7.79c-4.026,0-7.295-3.485-7.295-7.79
	c0-4.304,3.269-7.792,7.295-7.792C127.26,130.041,130.523,133.529,130.523,137.833"/>
<path fill="#34365C" d="M132.072,146.507c0,4.304-3.268,7.79-7.295,7.79c-4.029,0-7.297-3.486-7.297-7.79
	c0-4.305,3.268-7.792,7.297-7.792S132.072,142.202,132.072,146.507"/>
<path fill="#34365C" d="M131.421,150.332c0,5.392-4.089,9.755-9.137,9.755s-9.14-4.363-9.14-9.755c0-5.391,4.092-9.758,9.14-9.758
	S131.421,144.941,131.421,150.332"/>
<path fill="#B18566" d="M105.635,172.336l5.26,0.025c5.039,0,11.979-3.613,12.065-11.747l2.987-17.938
	c0.087-8.137-6.438-14.804-14.576-14.89l-2.325-0.027c-8.135-0.086-14.802,6.44-14.89,14.573
	C94.156,142.332,88.985,168.609,105.635,172.336"/>
<path fill="#34365C" d="M113.271,126.079c-18.6-0.426-20.327,9.075-20.815,12.716c-0.485,3.641,1.997,7.591,1.997,7.591l32.717,0.35
	C127.17,146.735,131.87,126.508,113.271,126.079"/>
<path fill="#34365C" d="M126.443,157.632c0,0-3.73-0.928-3.717-2.309l-0.523-13.541c0.015-1.375,1.152-2.492,2.531-2.478
	c1.377,0.014,2.806,2.675,2.793,4.053L126.443,157.632z"/>
<path fill="#B18566" d="M105.825,166.937l4.591,0.05c6.6,0.071,12.01-5.225,12.082-11.827l0.094-8.833
	c0.07-6.596-5.225-12.009-11.822-12.079l-8.736-0.094c-4.312-0.048-7.846,3.416-7.893,7.728l-0.919,9.186
	C93.146,157.667,99.225,166.866,105.825,166.937"/>
<path fill="#B18566" d="M121.786,158.695l3.647,0.039c1.746,0.015,3.199-1.401,3.221-3.158c0.02-1.754-1.4-3.205-3.154-3.224
	l-9.078,0.14c-1.755-0.021,0.993,3.371,0.993,3.371C117.393,157.618,120.031,158.675,121.786,158.695"/>
<path fill="#B18566" d="M93.873,158.695l0.642,0.039c-1.755,0.015-3.203-1.401-3.221-3.158c-0.019-1.754,1.401-3.205,3.156-3.224
	C94.45,152.353,95.623,158.675,93.873,158.695"/>
<path fill="#1D184D" d="M125.369,155.958c-0.001,0-0.002,0-0.003,0l-2.34-0.026c-0.166-0.001-0.3-0.138-0.298-0.304
	c0.002-0.165,0.137-0.297,0.301-0.297c0.001,0,0.002,0,0.003,0l2.34,0.026c0.166,0.001,0.3,0.138,0.298,0.304
	C125.668,155.826,125.533,155.958,125.369,155.958z"/>
<path fill="#1D184D" d="M109.531,150.289c-0.03,0.4,0.209,0.742,0.529,0.766c0.319,0.021,0.604-0.283,0.629-0.688
	c0.026-0.399-0.212-0.741-0.532-0.763C109.836,149.579,109.556,149.891,109.531,150.289"/>
<path fill="#1D184D" d="M96.009,149.914c-0.028,0.399,0.211,0.742,0.532,0.766c0.319,0.021,0.603-0.284,0.627-0.688
	c0.028-0.399-0.211-0.743-0.531-0.764C96.317,149.204,96.038,149.516,96.009,149.914"/>
<path fill="#1D184D" d="M113.523,146.183c-0.046,0-0.094-0.007-0.14-0.023c-0.181-0.06-0.356-0.179-0.578-0.331
	c-0.513-0.349-1.287-0.877-2.511-0.877h-1.844c-0.246,0-0.445-0.199-0.445-0.445s0.199-0.445,0.445-0.445h1.844
	c1.498,0,2.446,0.646,3.012,1.031c0.139,0.094,0.295,0.201,0.356,0.221c0.233,0.077,0.36,0.329,0.283,0.563
	C113.885,146.064,113.71,146.183,113.523,146.183z"/>
<path fill="#1D184D" d="M95.051,145.716c-0.191,0-0.368-0.124-0.426-0.316c-0.071-0.236,0.062-0.484,0.297-0.556l1.765-0.535
	c1.429-0.432,2.525-0.092,3.179,0.113c0.161,0.05,0.342,0.106,0.41,0.108c0.246,0.007,0.439,0.212,0.432,0.458
	c-0.007,0.246-0.214,0.428-0.458,0.432c-0.189-0.005-0.392-0.069-0.649-0.148c-0.593-0.185-1.488-0.462-2.656-0.111l-1.765,0.535
	C95.137,145.709,95.093,145.716,95.051,145.716z"/>
<path fill="#1D184D" d="M104.771,163.293c-1.074,0-2.134-0.146-3.158-0.442c-0.758-0.217-1.535-0.5-2.306-0.839
	c-0.244-0.107-0.355-0.393-0.248-0.637c0.107-0.245,0.391-0.356,0.637-0.248c0.732,0.322,1.467,0.589,2.185,0.795
	c2.707,0.782,5.71,0.422,8.457-1.015c0.234-0.124,0.527-0.033,0.651,0.205c0.124,0.236,0.032,0.528-0.204,0.652
	C108.848,162.777,106.787,163.293,104.771,163.293z"/>
<path fill="#1D184D" d="M103.39,156.197c-1.079,0-1.956-0.842-1.956-1.878c0-0.139,0.112-0.251,0.251-0.251s0.251,0.112,0.251,0.251
	c0,0.759,0.652,1.376,1.454,1.376c0.8,0,1.452-0.617,1.452-1.376c0-0.139,0.112-0.251,0.251-0.251s0.251,0.112,0.251,0.251
	C105.344,155.354,104.467,156.197,103.39,156.197z"/>
<rect x="102.478" y="167.648" fill="#B18566" width="15.215" height="14.686"/>
<path fill="#15B0BF" d="M110,98.32c-25.661-0.001-46.537,20.874-46.539,46.533c0.003,25.669,20.881,46.543,46.542,46.543
	c25.657,0.002,46.533-20.871,46.532-46.541C156.536,119.192,135.658,98.32,110,98.32z M110.004,177.194
	c-17.837,0-32.341-14.496-32.344-32.337c0.002-17.666,14.252-32.05,31.863-32.307v-0.005c0.155-0.001,0.319-0.023,0.48-0.021
	c17.827-0.002,32.337,14.505,32.338,32.33C142.346,162.695,127.831,177.192,110.004,177.194z"/>
<path fill="#1695A4" d="M110,98.321c-0.155,0.002-0.311,0.02-0.477,0.017l-0.001,14.205c0.155-0.001,0.319-0.021,0.479-0.018
	c17.828-0.003,32.338,14.503,32.338,32.329c0.003,17.841-14.51,32.337-32.338,32.339c-0.158-0.002-0.321-0.023-0.479-0.025
	l0.001,14.193c0.164,0,0.323,0.035,0.479,0.035c25.658,0.002,46.534-20.872,46.533-46.541
	C156.536,119.193,135.658,98.321,110,98.321"/>
</svg>
