<?xml version="1.0" encoding="UTF-8" standalone="no"?>
<svg
   xmlns:dc="http://purl.org/dc/elements/1.1/"
   xmlns:cc="http://creativecommons.org/ns#"
   xmlns:rdf="http://www.w3.org/1999/02/22-rdf-syntax-ns#"
   xmlns:svg="http://www.w3.org/2000/svg"
   xmlns="http://www.w3.org/2000/svg"
   viewBox="0 0 390.164 269.504"
   height="269.504"
   width="390.164"
   xml:space="preserve"
   id="svg2"
   version="1.1"><metadata
     id="metadata8"><rdf:RDF><cc:Work
         rdf:about=""><dc:format>image/svg+xml</dc:format><dc:type
           rdf:resource="http://purl.org/dc/dcmitype/StillImage" /></cc:Work></rdf:RDF></metadata><defs
     id="defs6"><clipPath
       id="clipPath18"
       clipPathUnits="userSpaceOnUse"><path
         id="path16"
         d="M 0,202.128 H 292.623 V 0 H 0 Z" /></clipPath></defs><g
     transform="matrix(1.3333333,0,0,-1.3333333,0,269.504)"
     id="g10"><g
       id="g12"><g
         clip-path="url(#clipPath18)"
         id="g14"><g
           transform="translate(27.9035,48.1292)"
           id="g20"><path
             id="path22"
             style="fill:#ffffff;fill-opacity:1;fill-rule:nonzero;stroke:none"
             d="m 0,0 c -7.006,0 -11.151,1.583 -14.84,3.089 -0.53,0.226 -0.603,0.83 -0.453,1.282 l 1.28,4.671 c 0.151,0.602 0.827,0.602 1.28,0.075 3.089,-3.24 7.609,-5.575 13.336,-5.575 5.197,0 9.566,3.315 9.566,7.685 0,11.903 -25.311,9.04 -25.311,24.033 0,7.609 5.425,11.978 12.957,11.978 6.782,0 11.376,-1.131 14.84,-1.357 0.53,0 0.681,-0.526 0.53,-0.978 L 12.28,40.308 c -0.077,-0.528 -0.676,-0.679 -1.206,-0.377 -3.09,1.807 -7.157,3.841 -13.409,3.841 -4.219,0 -7.309,-2.26 -7.309,-5.8 0,-12.13 25.389,-8.213 25.389,-25.164 C 15.745,3.542 8.437,0 0,0" /></g><g
           transform="translate(59.4631,49.034)"
           id="g24"><path
             id="path26"
             style="fill:#ffffff;fill-opacity:1;fill-rule:nonzero;stroke:none"
             d="M 0,0 H -3.843 C -4.52,0 -4.899,0.301 -4.899,0.905 l 0.077,17.175 -0.077,17.178 c 0,0.603 0.379,0.905 1.056,0.905 H 0 c 0.754,0 1.129,-0.302 1.129,-0.905 L 1.056,18.08 1.129,0.905 C 1.129,0.301 0.754,0 0,0" /></g><g
           transform="translate(89.6692,65.3822)"
           id="g28"><path
             id="path30"
             style="fill:#ffffff;fill-opacity:1;fill-rule:nonzero;stroke:none"
             d="m 0,0 c -0.301,-0.302 -0.452,-0.677 -0.452,-1.129 l 0.077,-14.314 c 0,-0.604 -0.375,-0.905 -1.056,-0.905 h -3.843 c -0.677,0 -1.129,0.301 -1.129,0.905 l 0.077,13.183 c 0,0.452 -0.151,0.829 -0.379,1.131 l -14.538,19.888 c -0.452,0.603 -0.228,1.055 0.526,1.055 h 5.05 c 0.676,0 1.202,-0.301 1.581,-0.829 L -2.861,2.562 c 0.151,-0.151 0.375,-0.151 0.452,0 L 7.838,19.211 c 0.375,0.528 0.754,0.603 1.353,0.603 h 3.318 c 0.827,0 0.827,-0.603 0.526,-1.13 z" /></g><g
           transform="translate(117.4665,78.2655)"
           id="g32"><path
             id="path34"
             style="fill:#ffffff;fill-opacity:1;fill-rule:nonzero;stroke:none"
             d="m 0,0 c -0.077,0.151 -0.228,0.151 -0.228,0 l -6.024,-15.747 c -0.078,-0.15 0,-0.299 0.15,-0.299 H 6.403 c 0.224,0 0.224,0.073 0.151,0.224 z m 18.081,-29.231 h -5.123 c -0.677,0 -1.129,0.301 -1.358,0.829 0,0 -1.052,2.637 -1.655,4.068 l -2.034,5.047 C 7.834,-19.136 7.61,-18.91 7.308,-18.91 H -7.083 c -0.225,0 -0.453,-0.151 -0.526,-0.377 l -3.314,-9.115 c -0.228,-0.603 -0.603,-0.829 -1.206,-0.829 h -3.314 c -0.831,0 -0.982,0.603 -0.754,1.206 l 14.84,34.579 c 0.379,0.98 3.692,0.98 4.145,0 L 16.65,-24.184 c 0.603,-1.506 2.184,-3.992 2.184,-3.992 0.375,-0.678 -0.077,-1.055 -0.753,-1.055" /></g><g
           transform="translate(154.9035,49.411)"
           id="g36"><path
             id="path38"
             style="fill:#ffffff;fill-opacity:1;fill-rule:nonzero;stroke:none"
             d="m 0,0 c -0.15,-0.453 -1.508,-0.754 -2.185,-0.754 -0.753,0 -2.037,0.301 -2.184,0.678 l -13.788,30.814 -1.884,3.992 c -0.301,0.679 0.074,1.056 0.755,1.056 h 5.046 c 0.677,0 1.129,-0.302 1.356,-0.83 l 1.655,-3.992 9.571,-24.41 c 0.073,-0.075 0.525,-0.075 0.525,0 L 9.191,34.956 c 0.224,0.528 0.526,0.83 1.203,0.83 h 3.468 c 0.827,0 0.905,-0.679 0.677,-1.205 z" /></g><g
           transform="translate(206.6545,79.7718)"
           id="g40"><path
             id="path42"
             style="fill:#ffffff;fill-opacity:1;fill-rule:nonzero;stroke:none"
             d="m 0,0 -0.529,-19.888 c -0.225,-7.836 -5.198,-11.83 -13.561,-11.83 -9.342,0 -15.141,3.994 -15.292,11.83 L -29.61,0.528 -29.684,4.52 c 0,0.603 0.453,0.905 1.129,0.905 h 4.068 c 0.68,0 1.133,-0.302 1.133,-0.905 l -0.151,-3.992 -0.077,-19.965 c 0,-5.499 4.296,-8.664 9.794,-8.664 4.671,0 8.816,2.335 8.738,8.062 l -0.223,19.963 c 0,1.81 -0.302,4.296 -0.302,4.296 0,0.602 0.15,1.205 0.904,1.205 H -0.68 C 0.074,5.425 0.225,4.822 0.225,4.22 0.225,4.22 0.074,1.883 0,0" /></g><g
           transform="translate(239.344,49.034)"
           id="g44"><path
             id="path46"
             style="fill:#ffffff;fill-opacity:1;fill-rule:nonzero;stroke:none"
             d="m 0,0 h -21.622 c -0.681,0 -1.056,0.301 -1.056,0.905 l 0.074,17.175 -0.074,17.178 c 0,0.603 0.375,0.905 1.056,0.905 h 3.839 c 0.755,0 1.133,-0.302 1.133,-0.905 L -16.728,18.08 -16.65,4.671 c 0,-0.603 0.599,-1.205 1.353,-1.205 h 5.275 C -6.705,3.466 0,4.595 0,4.595 c 0.525,0.076 1.279,0 1.279,-0.754 V 0.829 C 1.279,0.226 0.75,0 0,0" /></g><g
           transform="translate(261.1096,78.2655)"
           id="g48"><path
             id="path50"
             style="fill:#ffffff;fill-opacity:1;fill-rule:nonzero;stroke:none"
             d="m 0,0 c -0.074,0.151 -0.225,0.151 -0.225,0 l -6.028,-15.747 c -0.073,-0.15 0,-0.299 0.151,-0.299 H 6.403 c 0.228,0 0.228,0.073 0.151,0.224 z m 18.084,-29.231 h -5.123 c -0.681,0 -1.133,0.301 -1.357,0.829 0,0 -1.056,2.637 -1.66,4.068 l -2.033,5.047 c -0.074,0.151 -0.302,0.377 -0.603,0.377 H -7.08 c -0.229,0 -0.452,-0.151 -0.529,-0.377 l -3.315,-9.115 c -0.223,-0.603 -0.602,-0.829 -1.206,-0.829 h -3.313 c -0.828,0 -0.979,0.603 -0.754,1.206 L -1.354,6.554 c 0.375,0.98 3.689,0.98 4.141,0 l 13.862,-30.738 c 0.604,-1.506 2.185,-3.992 2.185,-3.992 0.379,-0.678 -0.073,-1.055 -0.75,-1.055" /></g><g
           transform="translate(13.8503,32.2777)"
           id="g52"><path
             id="path54"
             style="fill:#ffffff;fill-opacity:1;fill-rule:nonzero;stroke:none"
             d="m 0,0 c 0,1.412 0.757,2.118 2.273,2.118 h 11.059 c 1.247,0 1.872,-0.56 1.872,-1.682 0,-0.395 -0.062,-0.754 -0.187,-1.076 -0.125,-0.322 -0.217,-0.535 -0.28,-0.638 H 3.77 v -5.671 h 8.661 c 1.247,0 1.868,-0.561 1.868,-1.683 0,-0.393 -0.062,-0.752 -0.187,-1.074 -0.125,-0.322 -0.217,-0.535 -0.279,-0.638 H 3.77 v -8.911 H 0 Z" /></g><g
           transform="translate(49.0549,15.8577)"
           id="g56"><path
             id="path58"
             style="fill:#ffffff;fill-opacity:1;fill-rule:nonzero;stroke:none"
             d="M 0,0 C 1.081,0 2.078,0.197 2.99,0.592 3.906,0.986 4.693,1.532 5.358,2.227 6.024,2.922 6.546,3.748 6.933,4.704 7.315,5.66 7.51,6.708 7.51,7.851 7.51,8.992 7.315,10.048 6.933,11.013 6.546,11.979 6.024,12.81 5.358,13.505 4.693,14.202 3.906,14.741 2.99,15.125 2.078,15.51 1.081,15.703 0,15.703 c -1.082,0 -2.078,-0.193 -2.99,-0.578 -0.916,-0.384 -1.711,-0.923 -2.384,-1.62 C -6.05,12.81 -6.572,11.979 -6.948,11.013 -7.323,10.048 -7.51,8.992 -7.51,7.851 -7.51,6.708 -7.323,5.66 -6.948,4.704 -6.572,3.748 -6.05,2.922 -5.374,2.227 -4.701,1.532 -3.906,0.986 -2.99,0.592 -2.078,0.197 -1.082,0 0,0 m 0,19.099 c 1.622,0 3.119,-0.287 4.501,-0.857 C 5.884,17.67 7.087,16.881 8.117,15.874 9.143,14.866 9.948,13.678 10.53,12.306 11.111,10.936 11.405,9.45 11.405,7.851 11.405,6.25 11.111,4.767 10.53,3.396 9.948,2.025 9.143,0.835 8.117,-0.171 7.087,-1.179 5.884,-1.969 4.501,-2.54 3.119,-3.111 1.622,-3.396 0,-3.396 c -1.619,0 -3.123,0.285 -4.502,0.856 -1.383,0.571 -2.585,1.361 -3.615,2.369 -1.027,1.006 -1.832,2.196 -2.413,3.567 -0.581,1.371 -0.871,2.854 -0.871,4.455 0,1.599 0.29,3.085 0.871,4.455 0.581,1.372 1.386,2.56 2.413,3.568 1.03,1.007 2.232,1.796 3.615,2.368 1.379,0.57 2.883,0.857 4.502,0.857" /></g><g
           transform="translate(70.427,32.682)"
           id="g60"><path
             id="path62"
             style="fill:#ffffff;fill-opacity:1;fill-rule:nonzero;stroke:none"
             d="m 0,0 c 0,0.582 0.173,1.012 0.515,1.293 0.342,0.279 0.816,0.421 1.42,0.421 0.411,0 0.787,-0.053 1.121,-0.156 C 3.387,1.453 3.604,1.37 3.707,1.308 V -9.751 c 0,-1.185 0.107,-2.218 0.313,-3.101 0.209,-0.883 0.544,-1.62 1.011,-2.212 0.471,-0.592 1.089,-1.04 1.858,-1.339 0.764,-0.302 1.71,-0.452 2.831,-0.452 1.122,0 2.068,0.15 2.836,0.452 0.769,0.299 1.386,0.747 1.854,1.339 0.467,0.592 0.805,1.329 1.015,2.212 0.206,0.883 0.309,1.916 0.309,3.101 V 0 c 0,0.582 0.173,1.012 0.515,1.293 0.342,0.279 0.816,0.421 1.419,0.421 0.416,0 0.788,-0.053 1.122,-0.156 0.331,-0.105 0.548,-0.188 0.651,-0.25 v -11.372 c 0,-3.281 -0.809,-5.795 -2.427,-7.54 -1.622,-1.745 -4.054,-2.617 -7.294,-2.617 -3.24,0 -5.667,0.872 -7.289,2.617 C 0.812,-15.859 0,-13.345 0,-10.064 Z" /></g><g
           transform="translate(100.7434,32.4007)"
           id="g64"><path
             id="path66"
             style="fill:#ffffff;fill-opacity:1;fill-rule:nonzero;stroke:none"
             d="M 0,0 C 0,0.729 0.225,1.241 0.669,1.543 1.118,1.845 1.64,1.995 2.244,1.995 2.825,1.995 3.303,1.901 3.678,1.714 4.049,1.528 4.311,1.381 4.458,1.278 4.664,1.028 5.002,0.587 5.469,-0.046 5.936,-0.68 6.477,-1.427 7.087,-2.29 c 0.615,-0.862 1.269,-1.796 1.964,-2.804 0.696,-1.008 1.387,-2.01 2.071,-3.007 0.688,-0.996 1.335,-1.962 1.949,-2.896 0.611,-0.936 1.148,-1.756 1.604,-2.462 v 13.74 c 0,0.582 0.165,1.012 0.5,1.293 0.331,0.28 0.798,0.421 1.401,0.421 0.416,0 0.783,-0.053 1.107,-0.156 0.32,-0.105 0.533,-0.188 0.636,-0.25 v -20.967 h -3.736 c -0.375,0.581 -0.82,1.272 -1.343,2.072 -0.518,0.798 -1.092,1.672 -1.728,2.617 -0.633,0.945 -1.291,1.925 -1.979,2.944 -0.684,1.017 -1.368,2.03 -2.056,3.038 -0.684,1.007 -1.353,1.973 -2.008,2.898 -0.655,0.923 -1.25,1.76 -1.791,2.506 V -19.378 H 0 Z" /></g><g
           transform="translate(133.8918,16.2625)"
           id="g68"><path
             id="path70"
             style="fill:#ffffff;fill-opacity:1;fill-rule:nonzero;stroke:none"
             d="m 0,0 c 0.125,-0.042 0.456,-0.088 0.997,-0.14 0.54,-0.053 1.298,-0.079 2.276,-0.079 2.825,0 4.984,0.671 6.481,2.01 1.493,1.34 2.243,3.234 2.243,5.686 0,1.122 -0.173,2.155 -0.515,3.1 -0.341,0.945 -0.868,1.755 -1.574,2.431 -0.706,0.675 -1.61,1.205 -2.71,1.589 -1.1,0.384 -2.409,0.576 -3.925,0.576 -0.997,0 -1.772,-0.026 -2.32,-0.077 C 0.401,15.042 0.085,15.007 0,14.985 Z m -3.707,16.107 c 0,0.54 0.103,0.967 0.312,1.278 0.207,0.311 0.578,0.546 1.108,0.701 0.529,0.156 1.235,0.253 2.118,0.296 0.883,0.042 2.008,0.062 3.38,0.062 1.972,0 3.744,-0.254 5.31,-0.763 1.571,-0.509 2.899,-1.236 3.988,-2.181 1.092,-0.945 1.927,-2.098 2.508,-3.459 0.581,-1.361 0.876,-2.881 0.876,-4.564 0,-1.703 -0.284,-3.235 -0.843,-4.596 -0.563,-1.36 -1.387,-2.517 -2.479,-3.473 -1.089,-0.956 -2.438,-1.688 -4.05,-2.196 -1.61,-0.509 -3.463,-0.763 -5.56,-0.763 -2.222,0 -3.862,0.046 -4.921,0.139 -1.06,0.095 -1.644,0.151 -1.747,0.172 z" /></g><g
           transform="translate(172.8996,21.8709)"
           id="g72"><path
             id="path74"
             style="fill:#ffffff;fill-opacity:1;fill-rule:nonzero;stroke:none"
             d="M 0,0 C -0.291,0.767 -0.622,1.615 -0.997,2.54 -1.368,3.463 -1.74,4.366 -2.104,5.25 -2.465,6.133 -2.811,6.937 -3.13,7.665 -3.454,8.391 -3.707,8.941 -3.896,9.316 -4.163,8.733 -4.465,8.075 -4.796,7.337 -5.131,6.6 -5.473,5.82 -5.826,5 -6.179,4.18 -6.532,3.343 -6.885,2.492 -7.238,1.641 -7.569,0.809 -7.882,0 Z m -15.046,-8.849 c 0.519,1.392 1.1,2.893 1.743,4.502 0.644,1.609 1.321,3.261 2.027,4.954 0.706,1.694 1.437,3.411 2.195,5.156 0.758,1.745 1.512,3.448 2.259,5.111 0.375,0.829 0.798,1.407 1.275,1.729 0.479,0.321 1.082,0.483 1.81,0.483 0.268,0 0.533,-0.031 0.795,-0.094 0.257,-0.062 0.485,-0.136 0.683,-0.219 0.199,-0.083 0.364,-0.16 0.501,-0.233 0.132,-0.074 0.209,-0.12 0.232,-0.14 0.331,-0.581 0.764,-1.443 1.295,-2.586 C 0.298,8.671 0.868,7.389 1.482,5.966 2.093,4.542 2.722,3.058 3.365,1.51 4.009,-0.037 4.608,-1.5 5.156,-2.881 5.708,-4.264 6.189,-5.489 6.605,-6.559 7.021,-7.629 7.312,-8.393 7.477,-8.849 H 3.365 C 3.262,-8.599 3.126,-8.248 2.961,-7.79 2.795,-7.333 2.611,-6.839 2.416,-6.309 2.218,-5.78 2.016,-5.245 1.81,-4.706 1.6,-4.165 1.412,-3.687 1.247,-3.271 H -9.191 c -0.456,-1.144 -0.869,-2.198 -1.229,-3.163 -0.364,-0.966 -0.662,-1.771 -0.89,-2.415 z" /></g><g
           transform="translate(192.8118,30.9993)"
           id="g76"><path
             id="path78"
             style="fill:#ffffff;fill-opacity:1;fill-rule:nonzero;stroke:none"
             d="m 0,0 h -6.234 c -1.225,0 -1.835,0.561 -1.835,1.683 0,0.393 0.062,0.752 0.183,1.074 0.125,0.322 0.221,0.535 0.283,0.639 h 17.791 c 1.224,0 1.838,-0.56 1.838,-1.682 0,-0.395 -0.058,-0.754 -0.172,-1.076 C 11.739,0.316 11.64,0.103 11.56,0 H 3.707 V -17.977 H 0 Z" /></g><g
           transform="translate(213.8078,32.682)"
           id="g80"><path
             id="path82"
             style="fill:#ffffff;fill-opacity:1;fill-rule:nonzero;stroke:none"
             d="M 0,0 C 0,0.582 0.177,1.012 0.53,1.293 0.883,1.572 1.361,1.714 1.965,1.714 2.358,1.714 2.722,1.661 3.053,1.558 3.388,1.453 3.604,1.381 3.708,1.339 V -19.66 H 0 Z" /></g><g
           transform="translate(239.0793,15.8577)"
           id="g84"><path
             id="path86"
             style="fill:#ffffff;fill-opacity:1;fill-rule:nonzero;stroke:none"
             d="m 0,0 c 1.077,0 2.074,0.197 2.989,0.592 0.912,0.394 1.703,0.94 2.369,1.635 0.663,0.695 1.188,1.521 1.571,2.477 0.385,0.956 0.577,2.004 0.577,3.147 0,1.141 -0.192,2.197 -0.577,3.162 C 6.546,11.979 6.021,12.81 5.358,13.505 4.692,14.202 3.901,14.741 2.989,15.125 2.074,15.51 1.077,15.703 0,15.703 c -1.082,0 -2.078,-0.193 -2.994,-0.578 -0.912,-0.384 -1.707,-0.923 -2.384,-1.62 -0.673,-0.695 -1.198,-1.526 -1.573,-2.492 -0.372,-0.965 -0.56,-2.021 -0.56,-3.162 0,-1.143 0.188,-2.191 0.56,-3.147 0.375,-0.956 0.9,-1.782 1.573,-2.477 C -4.701,1.532 -3.906,0.986 -2.994,0.592 -2.078,0.197 -1.082,0 0,0 m 0,19.099 c 1.618,0 3.118,-0.287 4.501,-0.857 1.38,-0.572 2.586,-1.361 3.612,-2.368 1.03,-1.008 1.835,-2.196 2.416,-3.568 C 11.11,10.936 11.401,9.45 11.401,7.851 11.401,6.25 11.11,4.767 10.529,3.396 9.948,2.025 9.143,0.835 8.113,-0.171 7.087,-1.179 5.881,-1.969 4.501,-2.54 3.118,-3.111 1.618,-3.396 0,-3.396 c -1.622,0 -3.123,0.285 -4.506,0.856 -1.379,0.571 -2.586,1.361 -3.611,2.369 -1.03,1.006 -1.836,2.196 -2.417,3.567 -0.581,1.371 -0.871,2.854 -0.871,4.455 0,1.599 0.29,3.085 0.871,4.455 0.581,1.372 1.387,2.56 2.417,3.568 1.025,1.007 2.232,1.796 3.611,2.368 1.383,0.57 2.884,0.857 4.506,0.857" /></g><g
           transform="translate(260.6682,32.4007)"
           id="g88"><path
             id="path90"
             style="fill:#ffffff;fill-opacity:1;fill-rule:nonzero;stroke:none"
             d="M 0,0 C 0,0.729 0.224,1.241 0.669,1.543 1.118,1.845 1.64,1.995 2.243,1.995 2.824,1.995 3.303,1.901 3.678,1.714 4.049,1.528 4.311,1.381 4.457,1.278 4.663,1.028 5.002,0.587 5.469,-0.046 5.936,-0.68 6.477,-1.427 7.087,-2.29 c 0.614,-0.862 1.268,-1.796 1.964,-2.804 0.695,-1.008 1.387,-2.01 2.071,-3.007 0.688,-0.996 1.335,-1.962 1.949,-2.896 0.611,-0.936 1.148,-1.756 1.604,-2.462 v 13.74 c 0,0.582 0.165,1.012 0.5,1.293 0.331,0.28 0.798,0.421 1.401,0.421 0.415,0 0.783,-0.053 1.107,-0.156 0.32,-0.105 0.533,-0.188 0.636,-0.25 v -20.967 h -3.737 c -0.375,0.581 -0.819,1.272 -1.342,2.072 -0.518,0.798 -1.093,1.672 -1.728,2.617 -0.633,0.945 -1.291,1.925 -1.979,2.944 -0.684,1.017 -1.368,2.03 -2.056,3.038 -0.684,1.007 -1.354,1.973 -2.008,2.898 -0.655,0.923 -1.25,1.76 -1.791,2.506 V -19.378 H 0 Z" /></g><g
           transform="translate(179.0901,138.8944)"
           id="g92"><path
             id="path94"
             style="fill:#ffffff;fill-opacity:1;fill-rule:nonzero;stroke:none"
             d="m 0,0 c -0.071,-0.037 -0.15,-0.056 -0.23,-0.056 -0.053,0 -0.106,0.007 -0.156,0.024 l -5.99,1.933 c -0.263,0.084 -0.409,0.368 -0.326,0.633 0.628,2.006 1.035,4.034 1.209,6.03 0.02,0.263 0.244,0.463 0.501,0.463 0.014,0 0.029,0 0.043,-0.003 L 1.322,8.486 C 1.456,8.474 1.58,8.411 1.668,8.308 1.751,8.206 1.794,8.071 1.782,7.937 1.565,5.396 1.049,2.827 0.252,0.297 0.209,0.17 0.119,0.063 0,0 m -1.991,-5.147 c -5.677,-11.107 -17.906,-18.57 -30.423,-18.57 -0.558,0 -1.118,0.014 -1.673,0.044 -0.276,0.014 -0.488,0.247 -0.478,0.526 l 0.25,6.288 c 0.004,0.133 0.064,0.261 0.164,0.354 0.094,0.084 0.213,0.13 0.339,0.13 h 0.027 c 0.437,-0.023 0.883,-0.036 1.32,-0.036 9.867,0 19.512,5.887 24.002,14.647 0.06,0.122 0.169,0.213 0.297,0.251 0.048,0.016 0.101,0.025 0.152,0.025 0.081,0 0.162,-0.02 0.237,-0.058 l 5.569,-2.924 c 0.245,-0.13 0.343,-0.431 0.217,-0.677 m -35.969,-11.247 -1.297,-6.158 c -0.026,-0.135 -0.107,-0.249 -0.222,-0.323 -0.083,-0.053 -0.175,-0.08 -0.271,-0.08 -0.04,0 -0.075,0.005 -0.116,0.015 -2.964,0.694 -5.311,1.483 -7.388,2.485 -0.249,0.119 -0.354,0.416 -0.24,0.667 l 2.65,5.709 c 0.06,0.124 0.162,0.219 0.291,0.263 0.055,0.019 0.112,0.028 0.169,0.028 0.075,0 0.15,-0.016 0.221,-0.05 1.585,-0.77 3.384,-1.374 5.827,-1.961 0.267,-0.063 0.433,-0.327 0.376,-0.595 m -9.384,58.671 c 2.079,1.014 4.423,1.811 7.385,2.505 0.038,0.009 0.074,0.015 0.114,0.015 0.095,0 0.191,-0.027 0.269,-0.079 0.114,-0.072 0.195,-0.19 0.226,-0.321 l 1.311,-6.153 c 0.06,-0.269 -0.109,-0.535 -0.373,-0.598 -2.439,-0.587 -4.234,-1.196 -5.822,-1.976 -0.07,-0.034 -0.146,-0.051 -0.224,-0.051 -0.055,0 -0.112,0.01 -0.164,0.027 -0.131,0.046 -0.235,0.141 -0.29,0.264 l -2.668,5.7 c -0.118,0.251 -0.012,0.549 0.236,0.667 m -0.873,-54.424 -3.609,-5.156 c -0.079,-0.109 -0.198,-0.184 -0.333,-0.207 -0.027,-0.004 -0.055,-0.007 -0.081,-0.007 -0.108,0 -0.212,0.032 -0.298,0.096 -2.482,1.799 -4.335,3.442 -5.829,5.169 -0.181,0.21 -0.159,0.522 0.043,0.706 l 4.668,4.22 c 0.095,0.085 0.214,0.131 0.341,0.131 h 0.03 c 0.138,-0.009 0.264,-0.072 0.352,-0.177 1.456,-1.699 3.222,-3.073 4.599,-4.079 0.224,-0.161 0.276,-0.472 0.117,-0.696 m -13.046,4.382 c -0.085,-0.053 -0.178,-0.077 -0.271,-0.077 -0.166,0 -0.325,0.08 -0.423,0.229 -3.521,5.393 -5.382,11.8 -5.384,18.528 -0.005,6.729 1.851,13.136 5.367,18.535 0.096,0.149 0.257,0.232 0.421,0.232 0.095,0 0.188,-0.028 0.269,-0.081 l 5.32,-3.367 c 0.114,-0.07 0.195,-0.188 0.221,-0.318 0.029,-0.132 0.005,-0.271 -0.071,-0.383 -5.612,-8.607 -5.608,-20.623 0.017,-29.222 0.071,-0.114 0.1,-0.251 0.068,-0.382 -0.028,-0.134 -0.106,-0.248 -0.221,-0.321 z m 2.832,41.808 c 1.49,1.739 3.338,3.389 5.815,5.186 0.085,0.064 0.19,0.096 0.297,0.096 0.027,0 0.052,-0.002 0.083,-0.005 0.131,-0.025 0.25,-0.097 0.329,-0.207 l 3.628,-5.146 c 0.157,-0.224 0.107,-0.535 -0.115,-0.698 -1.375,-1.004 -3.135,-2.376 -4.593,-4.089 -0.088,-0.105 -0.215,-0.168 -0.35,-0.179 h -0.036 c -0.124,0 -0.243,0.047 -0.335,0.13 l -4.68,4.208 c -0.205,0.182 -0.224,0.497 -0.043,0.704 m 52.026,-14.004 5.984,1.951 c 0.052,0.015 0.105,0.025 0.156,0.025 0.079,0 0.158,-0.02 0.232,-0.056 0.119,-0.061 0.209,-0.167 0.25,-0.295 0.794,-2.456 1.32,-5.026 1.56,-7.636 C 1.789,13.895 1.746,13.76 1.663,13.658 1.577,13.556 1.451,13.49 1.318,13.479 l -6.269,-0.556 c -0.015,-0.004 -0.028,-0.004 -0.043,-0.004 -0.259,0 -0.481,0.198 -0.504,0.459 -0.19,2.065 -0.605,4.093 -1.231,6.024 -0.085,0.267 0.058,0.552 0.324,0.637 m -26.376,30.733 c -22,0 -39.837,-17.835 -39.837,-39.838 0,-22.004 17.837,-39.841 39.837,-39.841 22.003,0 39.843,17.837 39.843,39.841 0,22.003 -17.84,39.838 -39.843,39.838" /></g></g></g></g></svg>